<svg width="25" height="25" viewBox="0 0 25 25" fill="none" xmlns="http://www.w3.org/2000/svg">
<path d="M12.4128 14.7833C13.6555 14.7833 14.6628 13.7759 14.6628 12.5333C14.6628 11.2906 13.6555 10.2833 12.4128 10.2833C11.1702 10.2833 10.1628 11.2906 10.1628 12.5333C10.1628 13.7759 11.1702 14.7833 12.4128 14.7833Z" stroke="#6D728E" stroke-width="1.5" stroke-linecap="round" stroke-linejoin="round"/>
<path d="M9.41284 8.03328C10.6555 8.03328 11.6628 7.02592 11.6628 5.78328C11.6628 4.54064 10.6555 3.53328 9.41284 3.53328C8.1702 3.53328 7.16284 4.54064 7.16284 5.78328C7.16284 7.02592 8.1702 8.03328 9.41284 8.03328Z" stroke="#6D728E" stroke-width="1.5" stroke-linecap="round" stroke-linejoin="round"/>
<path d="M19.1628 12.5333C20.4055 12.5333 21.4128 11.5259 21.4128 10.2833C21.4128 9.04064 20.4055 8.03328 19.1628 8.03328C17.9202 8.03328 16.9128 9.04064 16.9128 10.2833C16.9128 11.5259 17.9202 12.5333 19.1628 12.5333Z" stroke="#6D728E" stroke-width="1.5" stroke-linecap="round" stroke-linejoin="round"/>
<path d="M19.1628 20.0333C20.4055 20.0333 21.4128 19.0259 21.4128 17.7833C21.4128 16.5406 20.4055 15.5333 19.1628 15.5333C17.9202 15.5333 16.9128 16.5406 16.9128 17.7833C16.9128 19.0259 17.9202 20.0333 19.1628 20.0333Z" stroke="#6D728E" stroke-width="1.5" stroke-linecap="round" stroke-linejoin="round"/>
<path d="M5.66284 20.7833C6.90548 20.7833 7.91284 19.7759 7.91284 18.5333C7.91284 17.2906 6.90548 16.2833 5.66284 16.2833C4.4202 16.2833 3.41284 17.2906 3.41284 18.5333C3.41284 19.7759 4.4202 20.7833 5.66284 20.7833Z" stroke="#6D728E" stroke-width="1.5" stroke-linecap="round" stroke-linejoin="round"/>
<path d="M11.5033 10.4802L10.322 7.8364" stroke="#6D728E" stroke-width="1.5" stroke-linecap="round" stroke-linejoin="round"/>
<path d="M17.0255 10.9958L14.5505 11.8208" stroke="#6D728E" stroke-width="1.5" stroke-linecap="round" stroke-linejoin="round"/>
<path d="M17.3909 16.4051L14.1847 13.9114" stroke="#6D728E" stroke-width="1.5" stroke-linecap="round" stroke-linejoin="round"/>
<path d="M10.7347 14.0239L7.34094 17.0427" stroke="#6D728E" stroke-width="1.5" stroke-linecap="round" stroke-linejoin="round"/>
</svg>
